<svg xmlns="http://www.w3.org/2000/svg"  viewBox="0 0 100 100" width="100px" height="100px"><path fill="#c7ede6" d="M87.215,56.71C88.35,54.555,89,52.105,89,49.5c0-6.621-4.159-12.257-10.001-14.478 C78.999,35.015,79,35.008,79,35c0-11.598-9.402-21-21-21c-9.784,0-17.981,6.701-20.313,15.757C36.211,29.272,34.638,29,33,29 c-7.692,0-14.023,5.793-14.89,13.252C12.906,43.353,9,47.969,9,53.5C9,59.851,14.149,65,20.5,65c0.177,0,0.352-0.012,0.526-0.022 C21.022,65.153,21,65.324,21,65.5C21,76.822,30.178,86,41.5,86c6.437,0,12.175-2.972,15.934-7.614C59.612,80.611,62.64,82,66,82 c4.65,0,8.674-2.65,10.666-6.518C77.718,75.817,78.837,76,80,76c6.075,0,11-4.925,11-11C91,61.689,89.53,58.727,87.215,56.71z"/><path fill="#fdfcef" d="M76.5,54.5V55h3v-0.5c0,0,4.242,0,5.5,0c2.485,0,4.5-2.015,4.5-4.5 c0-2.333-1.782-4.229-4.055-4.455C85.467,45.364,85.5,45.187,85.5,45c0-2.485-2.015-4.5-4.5-4.5c-1.438,0-2.703,0.686-3.527,1.736 C77.333,39.6,75.171,37.5,72.5,37.5c-2.761,0-5,2.239-5,5c0,0.446,0.077,0.87,0.187,1.282C67.045,43.005,66.086,42.5,65,42.5 c-1.781,0-3.234,1.335-3.455,3.055C61.364,45.533,61.187,45.5,61,45.5c-2.485,0-4.5,2.015-4.5,4.5s2.015,4.5,4.5,4.5s9.5,0,9.5,0 H76.5z"/><path fill="#472b29" d="M72.5,37c-3.033,0-5.5,2.467-5.5,5.5c0,0.016,0,0.031,0,0.047C66.398,42.192,65.71,42,65,42 c-1.831,0-3.411,1.261-3.858,3.005C61.095,45.002,61.048,45,61,45c-2.757,0-5,2.243-5,5s2.243,5,5,5h15.5 c0.276,0,0.5-0.224,0.5-0.5S76.776,54,76.5,54H61c-2.206,0-4-1.794-4-4s1.794-4,4-4c0.117,0,0.23,0.017,0.343,0.032l0.141,0.019 c0.021,0.003,0.041,0.004,0.062,0.004c0.246,0,0.462-0.185,0.495-0.437C62.232,44.125,63.504,43,65,43 c0.885,0,1.723,0.401,2.301,1.1c0.098,0.118,0.241,0.182,0.386,0.182c0.078,0,0.156-0.018,0.228-0.056 c0.209-0.107,0.314-0.346,0.254-0.573C68.054,43.218,68,42.852,68,42.5c0-2.481,2.019-4.5,4.5-4.5 c2.381,0,4.347,1.872,4.474,4.263c0.011,0.208,0.15,0.387,0.349,0.45c0.05,0.016,0.101,0.024,0.152,0.024 c0.15,0,0.296-0.069,0.392-0.192C78.638,41.563,79.779,41,81,41c2.206,0,4,1.794,4,4c0,0.117-0.017,0.23-0.032,0.343l-0.019,0.141 c-0.016,0.134,0.022,0.268,0.106,0.373c0.084,0.105,0.207,0.172,0.34,0.185C87.451,46.247,89,47.949,89,50c0,2.206-1.794,4-4,4 h-5.5c-0.276,0-0.5,0.224-0.5,0.5s0.224,0.5,0.5,0.5H85c2.757,0,5-2.243,5-5c0-2.397-1.689-4.413-4.003-4.877 C85.999,45.082,86,45.041,86,45c0-2.757-2.243-5-5-5c-1.176,0-2.293,0.416-3.183,1.164C77.219,38.76,75.055,37,72.5,37L72.5,37z"/><path fill="#472b29" d="M71 44c-1.403 0-2.609.999-2.913 2.341C67.72 46.119 67.301 46 66.875 46c-1.202 0-2.198.897-2.353 2.068C64.319 48.022 64.126 48 63.937 48c-1.529 0-2.811 1.2-2.918 2.732C61.01 50.87 61.114 50.99 61.251 51c.006 0 .012 0 .018 0 .13 0 .24-.101.249-.232.089-1.271 1.151-2.268 2.419-2.268.229 0 .47.042.738.127.022.007.045.01.067.01.055 0 .11-.02.156-.054C64.962 48.537 65 48.455 65 48.375c0-1.034.841-1.875 1.875-1.875.447 0 .885.168 1.231.473.047.041.106.063.165.063.032 0 .063-.006.093-.019.088-.035.148-.117.155-.212C68.623 45.512 69.712 44.5 71 44.5c.208 0 .425.034.682.107.023.007.047.01.07.01.109 0 .207-.073.239-.182.038-.133-.039-.271-.172-.309C71.517 44.04 71.256 44 71 44L71 44zM84.883 45.5c-1.326 0-2.508.897-2.874 2.182-.038.133.039.271.172.309C82.205 47.997 82.228 48 82.25 48c.109 0 .209-.072.24-.182C82.795 46.748 83.779 46 84.883 46c.117 0 .23.014.342.029.012.002.023.003.035.003.121 0 .229-.092.246-.217.019-.137-.077-.263-.214-.281C85.158 45.516 85.022 45.5 84.883 45.5L84.883 45.5z"/><path fill="#fff" d="M46.5 23h-10c-.276 0-.5-.224-.5-.5s.224-.5.5-.5h10c.276 0 .5.224.5.5S46.777 23 46.5 23zM49.5 23h-1c-.276 0-.5-.224-.5-.5s.224-.5.5-.5h1c.276 0 .5.224.5.5S49.777 23 49.5 23zM54.491 25H45.5c-.276 0-.5-.224-.5-.5s.224-.5.5-.5h8.991c.276 0 .5.224.5.5S54.767 25 54.491 25zM43.5 25h-1c-.276 0-.5-.224-.5-.5s.224-.5.5-.5h1c.276 0 .5.224.5.5S43.777 25 43.5 25zM40.5 25h-2c-.276 0-.5-.224-.5-.5s.224-.5.5-.5h2c.276 0 .5.224.5.5S40.777 25 40.5 25zM46.5 27h-2c-.276 0-.5-.224-.5-.5s.224-.5.5-.5h2c.276 0 .5.224.5.5S46.776 27 46.5 27zM49.5 18c-.177 0-.823 0-1 0-.276 0-.5.224-.5.5 0 .276.224.5.5.5.177 0 .823 0 1 0 .276 0 .5-.224.5-.5C50 18.224 49.776 18 49.5 18zM49.5 20c-.177 0-4.823 0-5 0-.276 0-.5.224-.5.5 0 .276.224.5.5.5.177 0 4.823 0 5 0 .276 0 .5-.224.5-.5C50 20.224 49.776 20 49.5 20zM54.5 22c-.177 0-2.823 0-3 0-.276 0-.5.224-.5.5 0 .276.224.5.5.5.177 0 2.823 0 3 0 .276 0 .5-.224.5-.5C55 22.224 54.776 22 54.5 22zM85.5 65h-10c-.276 0-.5-.224-.5-.5s.224-.5.5-.5h10c.276 0 .5.224.5.5S85.776 65 85.5 65zM89.5 65h-2c-.276 0-.5-.224-.5-.5s.224-.5.5-.5h2c.276 0 .5.224.5.5S89.776 65 89.5 65zM94.5 67h-10c-.276 0-.5-.224-.5-.5s.224-.5.5-.5h10c.276 0 .5.224.5.5S94.777 67 94.5 67zM82.5 67h-1c-.276 0-.5-.224-.5-.5s.224-.5.5-.5h1c.276 0 .5.224.5.5S82.776 67 82.5 67zM79.47 67H77.5c-.276 0-.5-.224-.5-.5s.224-.5.5-.5h1.97c.276 0 .5.224.5.5S79.746 67 79.47 67zM88.5 63h-5c-.276 0-.5-.224-.5-.5s.224-.5.5-.5h5c.276 0 .5.224.5.5S88.777 63 88.5 63zM85.5 69h-2c-.276 0-.5-.224-.5-.5s.224-.5.5-.5h2c.276 0 .5.224.5.5S85.776 69 85.5 69z"/><g><path fill="#67ba8c" d="M36.957,73.3c-3.45,0-6.256-2.807-6.256-6.256V40.956c0-3.449,2.807-6.256,6.256-6.256h26.087 c3.449,0,6.256,2.807,6.256,6.256v26.088c0,3.449-2.807,6.256-6.256,6.256H36.957z"/><path fill="#472b29" d="M63.043,35.4c3.064,0,5.557,2.493,5.557,5.557v26.087c0,3.064-2.493,5.557-5.557,5.557H36.957 c-3.064,0-5.557-2.493-5.557-5.557V40.957c0-3.064,2.493-5.557,5.557-5.557H63.043 M63.043,34H36.957C33.13,34,30,37.13,30,40.957 v26.087C30,70.87,33.13,74,36.957,74h26.087C66.87,74,70,70.87,70,67.043V40.957C70,37.13,66.87,34,63.043,34L63.043,34z"/></g><g><path fill="#472b29" d="M65.749,52.163c-0.276,0-0.5-0.224-0.5-0.5v-3.33c0-0.276,0.224-0.5,0.5-0.5s0.5,0.224,0.5,0.5v3.33 C66.249,51.939,66.025,52.163,65.749,52.163z"/></g><g><path fill="#472b29" d="M65.749,46.255c-0.276,0-0.5-0.224-0.5-0.5v-1.719c0-0.276,0.224-0.5,0.5-0.5s0.5,0.224,0.5,0.5 v1.719C66.249,46.031,66.025,46.255,65.749,46.255z"/></g><g><path fill="#3e7bf1" d="M50.281,57.893c0,0-10.478,10.066-14.597,14.789c0.411,0.097,0.837,0.153,1.277,0.153h25.78 c0.689,0,1.346-0.131,1.956-0.36C60.459,67.671,50.281,57.893,50.281,57.893z"/><path fill="#472b29" d="M62.741,73.085h-25.78c-0.437,0-0.886-0.054-1.334-0.159l-0.404-0.095l0.272-0.313 c4.078-4.677,14.507-14.704,14.612-14.806l0.173-0.166l0.173,0.166c0.102,0.099,10.234,9.84,14.43,14.598l0.24,0.271l-0.34,0.128 C64.121,72.959,63.434,73.085,62.741,73.085z M36.16,72.521c0.27,0.042,0.539,0.063,0.802,0.063h25.78 c0.512,0,1.021-0.076,1.519-0.226c-4.003-4.478-12.646-12.834-13.979-14.119C48.933,59.541,40.095,68.086,36.16,72.521z"/></g><g><path fill="#fffef4" d="M47.381,57.245l16.033,15.579c1.916-0.072,3.594-1.054,4.586-2.517L50.969,53.758L47.381,57.245z"/><path fill="#472b29" d="M63.316,73.078L47.022,57.245l3.947-3.836l17.355,16.864l-0.117,0.174 c-1.065,1.572-2.854,2.554-4.783,2.627L63.316,73.078z M47.74,57.245l15.771,15.324c1.659-0.094,3.194-0.919,4.162-2.232 l-16.704-16.23L47.74,57.245z"/></g><g><path fill="#bebacb" d="M52.43,55.745c0,0,10.648,10.641,15.518,14.692C68.609,69.529,69,68.428,69,67.239v-25.78 c0-0.394-0.044-0.778-0.125-1.149C64.615,43.567,52.43,55.745,52.43,55.745z"/><path fill="#472b29" d="M67.992,70.799l-0.205-0.17c-4.822-4.011-15.428-14.601-15.534-14.707l-0.177-0.177l0.177-0.177 c0.122-0.122,12.246-12.227,16.47-15.457l0.313-0.239l0.084,0.384c0.087,0.397,0.131,0.803,0.131,1.203v25.78 c0,1.2-0.381,2.356-1.101,3.345L67.992,70.799z M52.784,55.745c1.39,1.385,10.572,10.502,15.113,14.324 c0.559-0.852,0.853-1.824,0.853-2.83v-25.78c0-0.231-0.017-0.465-0.048-0.697C64.543,44.066,54.263,54.272,52.784,55.745z"/></g><g><path fill="#fde751" d="M36.692,72.822l31.633-31.633c-0.089-1.854-1.08-3.474-2.548-4.426l-33.51,33.51 C33.218,71.741,34.837,72.733,36.692,72.822z"/><path fill="#472b29" d="M36.79,73.076l-0.111-0.005c-1.872-0.09-3.601-1.085-4.623-2.662l-0.11-0.17l0.143-0.143 l33.653-33.654l0.17,0.11c1.577,1.023,2.572,2.752,2.662,4.624l0.005,0.11L36.79,73.076z M32.589,70.305 c0.925,1.315,2.402,2.15,4.005,2.261l31.475-31.475c-0.11-1.603-0.945-3.08-2.261-4.006L32.589,70.305z"/></g><g><path fill="#fff" d="M40.981,44.339v2.257h3.218c-0.424,1.368-1.565,2.346-3.218,2.346c-1.968,0-3.562-1.594-3.562-3.562 c0-1.972,1.594-3.567,3.562-3.567c0.885,0,1.695,0.327,2.316,0.86l1.662-1.662c-1.049-0.957-2.442-1.54-3.978-1.54 c-3.264,0-5.908,2.648-5.908,5.908s2.643,5.908,5.908,5.908c5.169,0,6.055-4.637,5.568-6.94L40.981,44.339z"/><path fill="#472b29" d="M40.981,51.537c-3.396,0-6.158-2.763-6.158-6.158s2.762-6.157,6.158-6.157 c1.539,0,3.012,0.569,4.146,1.604l0.193,0.176l-2.01,2.012l-0.176-0.151c-0.601-0.516-1.366-0.8-2.153-0.8 c-1.826,0-3.312,1.487-3.312,3.316c0,1.826,1.486,3.313,3.312,3.313c1.326,0,2.374-0.684,2.862-1.846h-3.112v-2.757l6.021,0.008 l0.042,0.198c0.316,1.495,0.064,3.708-1.21,5.28C44.528,50.877,42.979,51.537,40.981,51.537z M40.981,39.722 c-3.12,0-5.658,2.538-5.658,5.657c0,3.12,2.538,5.658,5.658,5.658c1.84,0,3.258-0.598,4.214-1.777 c1.116-1.377,1.377-3.293,1.147-4.663l-5.111-0.008v1.757h3.308l-0.101,0.324c-0.489,1.579-1.782,2.521-3.458,2.521 c-2.102,0-3.812-1.71-3.812-3.813c0-2.104,1.71-3.816,3.812-3.816c0.83,0,1.637,0.273,2.298,0.774l1.313-1.313 C43.58,40.182,42.307,39.722,40.981,39.722z"/></g><g><path fill="#ea4989" d="M62.258,28.461c-5.933,0-10.742,4.809-10.742,10.742c0,7.318,8.233,9.986,10.024,21.324 c0.117,0.73,0.126,1.234,0.718,1.234s0.6-0.504,0.718-1.234C64.767,49.189,73,46.521,73,39.203 C73,33.27,68.191,28.461,62.258,28.461z"/><path fill="#472b29" d="M62.258,62.261c-0.961,0-1.087-0.835-1.178-1.444l-0.033-0.211 c-0.922-5.836-3.587-9.325-5.938-12.403c-2.196-2.876-4.093-5.359-4.093-8.999c0-6.199,5.043-11.242,11.241-11.242 c6.199,0,11.242,5.043,11.242,11.242c0,3.64-1.896,6.123-4.093,8.999c-2.351,3.078-5.016,6.567-5.938,12.402l-0.033,0.211 C63.346,61.426,63.22,62.261,62.258,62.261z M62.258,28.961c-5.647,0-10.241,4.595-10.241,10.242c0,3.302,1.802,5.66,3.888,8.392 c2.423,3.173,5.169,6.769,6.131,12.854l0.033,0.22c0.034,0.224,0.08,0.53,0.136,0.598l0.125-0.013 c0.039-0.055,0.085-0.361,0.119-0.586l0.033-0.22c0.962-6.084,3.708-9.68,6.131-12.853c2.086-2.731,3.888-5.09,3.888-8.392 C72.5,33.556,67.905,28.961,62.258,28.961z"/></g><g><path fill="#fffef4" d="M66.018,39.203c0,2.077-1.683,3.76-3.76,3.76s-3.76-1.683-3.76-3.76c0-2.077,1.683-3.76,3.76-3.76 S66.018,37.126,66.018,39.203z"/><path fill="#472b29" d="M62.258,43.462c-2.349,0-4.259-1.91-4.259-4.259s1.91-4.26,4.259-4.26s4.26,1.911,4.26,4.26 S64.606,43.462,62.258,43.462z M62.258,35.943c-1.797,0-3.259,1.462-3.259,3.26c0,1.797,1.462,3.259,3.259,3.259 c1.798,0,3.26-1.462,3.26-3.259C65.518,37.405,64.056,35.943,62.258,35.943z"/></g><g><path fill="#472b29" d="M63.108,51.749c-0.079,0-0.158-0.019-0.232-0.058c-0.244-0.128-0.339-0.43-0.21-0.675 c1.346-2.566,3.89-5.875,4.977-7.287c0.241-0.313,0.406-0.527,0.461-0.608c0.786-1.163,1.201-2.523,1.201-3.932 c0-0.276,0.224-0.5,0.5-0.5s0.5,0.224,0.5,0.5c0,1.608-0.475,3.162-1.373,4.492c-0.059,0.087-0.236,0.318-0.496,0.657 c-1.071,1.393-3.579,4.652-4.885,7.143C63.462,51.651,63.288,51.749,63.108,51.749z"/></g><g><path fill="#472b29" d="M69.531,37.674c-0.22,0-0.421-0.146-0.481-0.366c-0.165-0.593-0.406-1.161-0.718-1.689 c-0.333-0.564-0.746-1.081-1.226-1.536c-0.2-0.19-0.209-0.507-0.02-0.707c0.191-0.2,0.508-0.206,0.707-0.02 c0.548,0.52,1.019,1.109,1.399,1.755c0.356,0.604,0.632,1.253,0.819,1.93c0.074,0.267-0.082,0.542-0.348,0.615 C69.62,37.668,69.575,37.674,69.531,37.674z"/></g><g><path fill="#472b29" d="M65.733,32.997c-0.078,0-0.156-0.018-0.229-0.056c-1.006-0.521-2.094-0.785-3.232-0.785 c-0.276,0-0.5-0.224-0.5-0.5s0.224-0.5,0.5-0.5c1.282,0,2.559,0.311,3.691,0.896c0.246,0.127,0.342,0.429,0.215,0.674 C66.089,32.898,65.914,32.997,65.733,32.997z"/></g><g><path fill="#fdfcef" d="M34.5,63.5c0,0,1.567,0,3.5,0s3.5-1.567,3.5-3.5c0-1.781-1.335-3.234-3.055-3.455 C38.473,56.366,38.5,56.187,38.5,56c0-1.933-1.567-3.5-3.5-3.5c-1.032,0-1.95,0.455-2.59,1.165 c-0.384-1.808-1.987-3.165-3.91-3.165c-2.209,0-4,1.791-4,4c0,0.191,0.03,0.374,0.056,0.558C24.128,54.714,23.592,54.5,23,54.5 c-1.228,0-2.245,0.887-2.455,2.055C20.366,56.527,20.187,56.5,20,56.5c-1.933,0-3.5,1.567-3.5,3.5s1.567,3.5,3.5,3.5s7.5,0,7.5,0 V64h7V63.5z"/><path fill="#472b29" d="M36.25 59C36.112 59 36 58.888 36 58.75c0-1.223.995-2.218 2.218-2.218.034.009.737-.001 1.244.136.133.036.212.173.176.306-.036.134-.173.213-.306.176-.444-.12-1.1-.12-1.113-.118-.948 0-1.719.771-1.719 1.718C36.5 58.888 36.388 59 36.25 59zM29.5 63A.5.5 0 1 0 29.5 64 .5.5 0 1 0 29.5 63z"/><path fill="#472b29" d="M38,64h-3.5c-0.276,0-0.5-0.224-0.5-0.5s0.224-0.5,0.5-0.5H38c1.654,0,3-1.346,3-3 c0-1.496-1.125-2.768-2.618-2.959c-0.134-0.018-0.255-0.088-0.336-0.196s-0.115-0.244-0.094-0.377C37.975,56.314,38,56.16,38,56 c0-1.654-1.346-3-3-3c-0.85,0-1.638,0.355-2.219,1c-0.125,0.139-0.321,0.198-0.5,0.148c-0.182-0.049-0.321-0.195-0.36-0.379 C31.58,52.165,30.141,51,28.5,51c-1.93,0-3.5,1.57-3.5,3.5c0,0.143,0.021,0.28,0.041,0.418c0.029,0.203-0.063,0.438-0.242,0.54 c-0.179,0.102-0.396,0.118-0.556-0.01C23.878,55.155,23.449,55,23,55c-0.966,0-1.792,0.691-1.963,1.644 c-0.048,0.267-0.296,0.446-0.569,0.405C20.314,57.025,20.16,57,20,57c-1.654,0-3,1.346-3,3s1.346,3,3,3h7.5 c0.276,0,0.5,0.224,0.5,0.5S27.776,64,27.5,64H20c-2.206,0-4-1.794-4-4s1.794-4,4-4c0.059,0,0.116,0.002,0.174,0.006 C20.588,54.82,21.711,54,23,54c0.349,0,0.689,0.061,1.011,0.18C24.176,51.847,26.126,50,28.5,50c1.831,0,3.466,1.127,4.153,2.774 C33.333,52.276,34.155,52,35,52c2.206,0,4,1.794,4,4c0,0.048-0.001,0.095-0.004,0.142C40.739,56.59,42,58.169,42,60 C42,62.206,40.206,64,38,64z"/><path fill="#472b29" d="M32.5,63c-0.159,0-0.841,0-1,0c-0.276,0-0.5,0.224-0.5,0.5c0,0.276,0.224,0.5,0.5,0.5 c0.159,0,0.841,0,1,0c0.276,0,0.5-0.224,0.5-0.5C33,63.224,32.776,63,32.5,63z"/></g></svg>